<?xml version="1.0" encoding="UTF-8"?>
<svg id="_图层_1" data-name="图层_1" xmlns="http://www.w3.org/2000/svg" version="1.1" viewBox="0 0 200 200">
  <!-- Generator: Adobe Illustrator 29.1.0, SVG Export Plug-In . SVG Version: 2.1.0 Build 142)  -->
  <defs>
    <style>
      .st0 {
        fill: #18833b;
      }
    </style>
  </defs>
  <path class="st0" d="M69.13,0H12.87C4.29,0,0,4.29,0,12.87v56.25c0,8.58,4.29,12.87,12.87,12.87h56.25c8.58,0,12.87-4.29,12.87-12.87V12.87c0-8.58-4.29-12.87-12.87-12.87ZM55.36,28.84h-10.26v28.73c-.13,2.21-1.95,3.93-4.16,3.93s-4.04-1.73-4.17-3.93v-28.73h-10.14c-2.24-.09-4-1.93-4-4.17s1.77-4.08,4-4.17h28.73c2.24.09,4,1.93,4,4.17s-1.77,4.08-4,4.17Z"/>
  <path class="st0" d="M180.37,200h-42.74c-10.84,0-19.63-8.86-19.63-19.78v-42.43c0-10.93,8.79-19.78,19.63-19.78h42.74c10.81.07,19.56,8.89,19.63,19.78v42.95c-.35,10.69-9.01,19.2-19.63,19.26h0ZM137.63,130.63c-1.73,0-3.4.7-4.61,1.95-1.21,1.25-1.88,2.94-1.84,4.69v42.95c-.03,1.75.63,3.44,1.84,4.69,1.21,1.25,2.88,1.95,4.61,1.95h42.74c1.73,0,3.4-.7,4.61-1.95,1.21-1.25,1.88-2.94,1.85-4.69v-42.43c.03-1.75-.63-3.44-1.85-4.69-1.21-1.25-2.88-1.95-4.61-1.95l-42.74-.52ZM172.56,161.3c-1-1.27-2.23-2.36-3.64-3.23-1.37-.84-2.89-1.51-4.51-2-1.55-.46-3.07-.82-4.51-1.06l-.12-.02h-.27c-.07,0-.18-.03-.34-.06l-.77-.11c-.63-.08-1.33-.24-2.08-.48-.74-.24-1.44-.56-2.09-.94-.61-.37-1.15-.8-1.59-1.31-.35-.4-.56-.84-.63-1.34-.06-.44-.03-.84.08-1.18.17-.56.47-1.01.9-1.38.53-.44,1.13-.81,1.8-1.08.72-.29,1.47-.5,2.25-.62.81-.13,1.55-.2,2.19-.2.94,0,1.9.1,2.86.29.91.18,1.76.5,2.53.92.74.41,1.38.94,1.9,1.59.5.61.85,1.38,1.06,2.31.19.82.62,1.5,1.25,2.01.75.61,1.71.94,2.68.74l.13-.02c.97-.15,1.79-.65,2.38-1.45.58-.79.8-1.72.66-2.68-.29-1.95-.96-3.69-1.98-5.16-1-1.43-2.23-2.64-3.67-3.6-1.41-.94-3-1.64-4.7-2.1-1.68-.45-3.41-.68-5.15-.68h-1.21c-.26,0-.53.03-.81.1-1.21.1-2.45.33-3.68.69-1.3.38-2.54.92-3.68,1.6-1.17.7-2.22,1.58-3.1,2.6-.9,1.05-1.6,2.29-2.07,3.7-.47,1.48-.61,3-.4,4.54.2,1.54.68,2.92,1.43,4.1.72,1.13,1.61,2.12,2.64,2.96,1.01.81,2.14,1.51,3.38,2.06,1.2.54,2.45.98,3.65,1.29.4.13.86.25,1.35.35.46.09.88.17,1.28.23l.23.02s.08,0,.11,0c.08.01.18.03.36.06.71.11,1.56.28,2.53.5.91.21,1.79.51,2.63.9.79.37,1.48.82,2.06,1.35.43.4.67.85.75,1.5.02.13.03.25,0,.34-.04.2-.1.4-.19.63-.23.61-.57,1.11-1.04,1.53-.53.47-1.14.86-1.81,1.15-.71.31-1.46.54-2.23.68-1.78.32-3.31.28-5.04-.08-.9-.18-1.75-.5-2.52-.92-.74-.41-1.37-.93-1.88-1.56-.46-.56-.73-1.25-.86-2.19-.18-.95-.66-1.76-1.39-2.36-.73-.6-1.58-.9-2.5-.9h-.3l-.26.02c-1.02.18-1.89.69-2.52,1.47-.67.84-.93,1.86-.74,2.96.12.67.27,1.33.44,1.96.19.71.47,1.41.86,2.11.74,1.28,1.64,2.42,2.68,3.38,1.04.96,2.21,1.76,3.47,2.39,1.24.61,2.58,1.08,3.96,1.38,1.37.29,2.77.44,4.17.44s2.94-.16,4.42-.46c1.51-.31,2.95-.82,4.27-1.5,1.35-.69,2.58-1.59,3.65-2.68,1.11-1.12,1.97-2.48,2.56-4.02.57-1.49.78-3.05.61-4.61-.17-1.9-.8-3.56-1.87-4.93Z"/>
  <path class="st0" d="M93.68,200c-1.72.02-3.37-.66-4.56-1.89L1.81,110.7c-2.41-2.45-2.41-6.38,0-8.83,2.52-2.5,6.6-2.5,9.12,0l87.18,87.4c2.51,2.51,2.51,6.57,0,9.08-1.22,1.07-2.8,1.66-4.43,1.64h0Z"/>
  <path class="st0" d="M193.68,99.92c-1.75.27-3.54-.18-4.94-1.25L101.83,10.88c-2.45-2.52-2.45-6.51,0-9.03C103.02.67,104.64,0,106.33,0s3.31.67,4.5,1.86l87.29,86.91c1.84,1.83,2.39,4.57,1.39,6.96-1,2.39-3.35,3.94-5.95,3.95l.13.25Z"/>
</svg>