<?xml version="1.0" encoding="UTF-8"?>
<svg id="_图标" data-name="图标" xmlns="http://www.w3.org/2000/svg" version="1.1" viewBox="0 0 520 100">
  <!-- Generator: Adobe Illustrator 29.1.0, SVG Export Plug-In . SVG Version: 2.1.0 Build 142)  -->
  <defs>
    <style>
      .st0 {
        fill: #18833b;
      }
    </style>
  </defs>
  <g>
    <path class="st0" d="M151.49,42c-1.72-.79-3.45-1.43-5.17-1.91-1.72-.45-3.52-.81-5.38-1.09-.45-.03-.9-.06-1.34-.08-.45-.02-.86-.03-1.24-.03h-1.29c-.38,0-.76.03-1.14.1-.38.07-.75.15-1.11.23-.36.09-.68.18-.96.28-.48.21-.88.4-1.19.57-.07.03-.11.07-.13.1-.02.03-.04.07-.08.1l-.1.1s-.07.09-.1.26v.21h-.05l-.05.05v.52l.1.05v.31l.05.05s.02.07.05.1c0,.03.02.07.05.1.03.07.15.17.36.31.31.31.84.6,1.6.88.38.17.78.32,1.19.44.41.12.84.25,1.29.39.48.14.97.26,1.47.36.5.1.99.21,1.47.31.52.17,1.03.3,1.55.39.52.09,1.07.18,1.65.28l3.41.93c1.27.38,2.52.86,3.72,1.45.17.07.34.14.52.21.17.07.34.15.52.26.17.07.33.15.47.23.14.09.29.18.47.28.38.28.73.53,1.06.78.33.24.65.5.96.78.31.34.64.68.98,1.01.34.33.65.7.93,1.11.21.38.41.78.62,1.21.21.43.43.85.67,1.27.31.93.52,1.83.62,2.69l.1,1.29v.62c0,.1,0,.22-.03.34-.02.12-.03.23-.03.34-.03.9-.22,1.84-.57,2.84-.17.48-.37.91-.59,1.29-.22.38-.46.79-.7,1.24-.24.38-.5.72-.78,1.03-.28.31-.59.64-.93.98-.31.28-.6.54-.88.8-.28.26-.6.47-.98.65-.31.28-.62.51-.93.7-.31.19-.66.37-1.03.54-.31.17-.62.33-.93.47-.31.14-.66.26-1.03.36-.66.28-1.32.5-1.99.67-.67.17-1.32.31-1.94.41-1.34.21-2.65.31-3.93.31-1.31.03-2.59-.03-3.85-.18-1.26-.16-2.51-.37-3.75-.65-2.41-.59-4.73-1.41-6.95-2.48-2.22-1.07-4.3-2.33-6.23-3.77l5.17-7.13c.79.59,1.59,1.09,2.4,1.53.81.43,1.63.85,2.46,1.27.86.38,1.71.7,2.56.96.84.26,1.71.47,2.61.65,1.79.41,3.57.57,5.33.47.41-.03.82-.07,1.21-.1.4-.03.82-.09,1.27-.15.38-.1.76-.21,1.14-.34.38-.12.72-.25,1.03-.39.38-.17.71-.32.98-.44.28-.12.55-.27.83-.44l.57-.62c.07-.07.12-.15.16-.23.03-.09.09-.16.15-.23l.16-.36c0-.07,0-.12.03-.15.02-.03.03-.09.03-.16v-.1l-.05-.05v-.41l-.16-.52s0-.06-.03-.08c-.02-.02-.03-.04-.03-.08-.07-.07-.1-.12-.1-.16-.07-.03-.12-.07-.16-.1-.03-.03-.09-.09-.15-.15-.14-.1-.33-.24-.57-.41l-.41-.15c-.1-.1-.26-.19-.47-.26-.72-.28-1.52-.53-2.38-.78-.41-.1-.86-.21-1.34-.31-.48-.1-.97-.19-1.45-.26-.48-.14-.98-.25-1.5-.34-.52-.09-1.07-.18-1.65-.28-.52-.14-1.06-.25-1.63-.34-.57-.09-1.16-.2-1.78-.34l-3.67-1.09-1.96-.88c-.38-.17-.72-.35-1.03-.54-.31-.19-.66-.39-1.03-.59-.38-.28-.74-.56-1.09-.85-.34-.29-.71-.59-1.09-.9-.14-.17-.28-.37-.41-.59-.14-.22-.29-.42-.47-.59l-.83-1.24c-.55-.93-.93-1.84-1.14-2.74l-.26-1.4c-.03-.07-.05-.17-.05-.31,0-.1,0-.18-.03-.23-.02-.05-.03-.11-.03-.18v-.31l-.05-.31v-1.29c.03-.24.05-.47.05-.7s.03-.47.1-.75c.1-.86.36-1.81.78-2.84.17-.41.39-.85.65-1.32.26-.47.54-.89.85-1.27.31-.38.63-.75.96-1.11.33-.36.66-.68,1.01-.96.38-.28.76-.55,1.14-.83.38-.28.72-.52,1.03-.72.38-.21.76-.39,1.14-.54.38-.16.76-.3,1.14-.44.72-.31,1.43-.56,2.12-.75.69-.19,1.38-.34,2.07-.44.69-.1,1.36-.18,2.02-.23.65-.05,1.33-.09,2.02-.13.65-.03,1.3-.04,1.94-.03.64.02,1.27.06,1.89.13,1.27.07,2.52.21,3.72.41,1.21.21,2.41.47,3.62.78,1.21.28,2.39.6,3.54.98,1.15.38,2.3.81,3.44,1.29l-4.81,11.12Z"/>
    <path class="st0" d="M193.78,42c-1.72-.79-3.45-1.43-5.17-1.91-1.72-.45-3.52-.81-5.38-1.09-.45-.03-.9-.06-1.34-.08-.45-.02-.86-.03-1.24-.03h-1.29c-.38,0-.76.03-1.14.1-.38.07-.75.15-1.11.23-.36.09-.68.18-.96.28-.48.21-.88.4-1.19.57-.07.03-.11.07-.13.1-.02.03-.04.07-.08.1l-.1.1s-.07.09-.1.26v.21h-.05l-.05.05v.52l.1.05v.31l.05.05s.02.07.05.1c0,.03.02.07.05.1.03.07.15.17.36.31.31.31.84.6,1.6.88.38.17.78.32,1.19.44.41.12.84.25,1.29.39.48.14.97.26,1.47.36.5.1.99.21,1.47.31.52.17,1.03.3,1.55.39.52.09,1.07.18,1.65.28l3.41.93c1.27.38,2.52.86,3.72,1.45.17.07.34.14.52.21.17.07.34.15.52.26.17.07.33.15.47.23.14.09.29.18.47.28.38.28.73.53,1.06.78.33.24.65.5.96.78.31.34.64.68.98,1.01.34.33.65.7.93,1.11.21.38.41.78.62,1.21.21.43.43.85.67,1.27.31.93.52,1.83.62,2.69l.1,1.29v.62c0,.1,0,.22-.03.34-.02.12-.03.23-.03.34-.03.9-.22,1.84-.57,2.84-.17.48-.37.91-.59,1.29-.22.38-.46.79-.7,1.24-.24.38-.5.72-.78,1.03-.28.31-.59.64-.93.98-.31.28-.6.54-.88.8-.28.26-.6.47-.98.65-.31.28-.62.51-.93.7-.31.19-.66.37-1.03.54-.31.17-.62.33-.93.47-.31.14-.66.26-1.03.36-.66.28-1.32.5-1.99.67-.67.17-1.32.31-1.94.41-1.34.21-2.65.31-3.93.31-1.31.03-2.59-.03-3.85-.18-1.26-.16-2.51-.37-3.75-.65-2.41-.59-4.73-1.41-6.95-2.48-2.22-1.07-4.3-2.33-6.23-3.77l5.17-7.13c.79.59,1.59,1.09,2.4,1.53.81.43,1.63.85,2.46,1.27.86.38,1.71.7,2.56.96.84.26,1.71.47,2.61.65,1.79.41,3.57.57,5.33.47.41-.03.82-.07,1.21-.1.4-.03.82-.09,1.27-.15.38-.1.76-.21,1.14-.34.38-.12.72-.25,1.03-.39.38-.17.71-.32.98-.44.28-.12.55-.27.83-.44l.57-.62c.07-.07.12-.15.16-.23.03-.09.09-.16.15-.23l.16-.36c0-.07,0-.12.03-.15.02-.03.03-.09.03-.16v-.1l-.05-.05v-.41l-.16-.52s0-.06-.03-.08c-.02-.02-.03-.04-.03-.08-.07-.07-.1-.12-.1-.16-.07-.03-.12-.07-.16-.1-.03-.03-.09-.09-.15-.15-.14-.1-.33-.24-.57-.41l-.41-.15c-.1-.1-.26-.19-.47-.26-.72-.28-1.52-.53-2.38-.78-.41-.1-.86-.21-1.34-.31-.48-.1-.97-.19-1.45-.26-.48-.14-.98-.25-1.5-.34-.52-.09-1.07-.18-1.65-.28-.52-.14-1.06-.25-1.63-.34-.57-.09-1.16-.2-1.78-.34l-3.67-1.09-1.96-.88c-.38-.17-.72-.35-1.03-.54-.31-.19-.66-.39-1.03-.59-.38-.28-.74-.56-1.09-.85-.34-.29-.71-.59-1.09-.9-.14-.17-.28-.37-.41-.59-.14-.22-.29-.42-.47-.59l-.83-1.24c-.55-.93-.93-1.84-1.14-2.74l-.26-1.4c-.03-.07-.05-.17-.05-.31,0-.1,0-.18-.03-.23-.02-.05-.03-.11-.03-.18v-.31l-.05-.31v-1.29c.03-.24.05-.47.05-.7s.03-.47.1-.75c.1-.86.36-1.81.78-2.84.17-.41.39-.85.65-1.32.26-.47.54-.89.85-1.27.31-.38.63-.75.96-1.11.33-.36.66-.68,1.01-.96.38-.28.76-.55,1.14-.83.38-.28.72-.52,1.03-.72.38-.21.76-.39,1.14-.54.38-.16.76-.3,1.14-.44.72-.31,1.43-.56,2.12-.75.69-.19,1.38-.34,2.07-.44.69-.1,1.36-.18,2.02-.23.65-.05,1.33-.09,2.02-.13.65-.03,1.3-.04,1.94-.03.64.02,1.27.06,1.89.13,1.27.07,2.52.21,3.72.41,1.21.21,2.41.47,3.62.78,1.21.28,2.39.6,3.54.98,1.15.38,2.3.81,3.44,1.29l-4.81,11.12Z"/>
    <path class="st0" d="M221.9,62.99c.28-1.65.58-3.3.9-4.94.33-1.64.68-3.28,1.06-4.94.07-.38.15-.77.23-1.16.09-.4.18-.8.28-1.21-.41-1.1-.83-2.17-1.24-3.21-.41-1.03-.86-2.05-1.34-3.05-.28-.59-.56-1.14-.85-1.65-.29-.52-.58-1.02-.85-1.5-.35-.59-.66-1.03-.93-1.34-.17-.28-.34-.51-.49-.7-.15-.19-.32-.37-.49-.54l-.47-.47-.47-.41-.41-.31-.36-.16c-.14-.1-.29-.15-.47-.15h-.16v.05s0,.05-.1.15c0,.03,0,.06-.03.08s-.03.04-.03.08l-.1.21-.16.52c-.14.28-.26.74-.36,1.4-.1.48-.18,1.02-.23,1.6-.05.59-.11,1.17-.18,1.76-.1,1.24-.16,2.52-.16,3.83-.03,1.28-.03,2.57,0,3.88.03,1.31.07,2.64.1,3.98l.36,8.17c.07,1.38.13,2.75.18,4.11.05,1.36.09,2.75.13,4.16l-10.81.15c.03-1.34.04-2.7.03-4.06-.02-1.36-.03-2.71-.03-4.06-.03-1.38-.05-2.75-.05-4.11v-4.21c0-1.38,0-2.77.03-4.16.02-1.4.06-2.82.13-4.27.07-.72.13-1.46.18-2.2.05-.74.11-1.47.18-2.2.07-.79.16-1.58.28-2.35.12-.78.27-1.56.44-2.35.1-.45.21-.87.34-1.27.12-.4.27-.84.44-1.32l.52-1.34c.07-.1.13-.21.18-.31.05-.1.11-.24.18-.41.07-.1.14-.21.21-.34.07-.12.14-.25.21-.39l.47-.67.57-.83c.1-.1.21-.21.34-.31.12-.1.23-.22.34-.36l.78-.67c.62-.45,1.24-.79,1.86-1.03.17-.1.34-.18.49-.23.16-.05.32-.11.49-.18l.41-.1.41-.1c.55-.1,1.14-.15,1.76-.15.59,0,1.17.05,1.76.15.28.07.56.13.85.18.29.05.58.13.85.23l1.45.72c.24.14.47.27.7.39.22.12.44.27.65.44l1.09.88.98,1.03.88.93c.59.72,1.09,1.4,1.5,2.02l1.19,2.02c.17.31.33.6.47.88.14.28.28.55.41.83.17-.38.35-.77.54-1.16.19-.4.39-.78.59-1.16.24-.45.48-.88.72-1.29.24-.41.5-.83.78-1.24.31-.45.63-.88.96-1.29.33-.41.7-.84,1.11-1.29.21-.21.42-.4.65-.59.22-.19.47-.39.75-.59.28-.17.55-.34.83-.52.28-.17.59-.34.93-.52.72-.38,1.45-.62,2.17-.72.72-.17,1.5-.22,2.33-.16.48.07.86.14,1.14.21.14,0,.22.02.26.05l.26.05.52.15c.65.24,1.33.59,2.02,1.03.34.17.65.4.93.67.17.1.32.22.44.34.12.12.25.23.39.34l1.34,1.65c.31.52.62,1.07.93,1.65.14.28.27.55.39.83.12.28.23.57.34.88.38,1.03.67,2.03.88,3,.1.48.2.96.28,1.42.09.47.16.94.23,1.42.24,1.86.4,3.67.47,5.43.1,1.76.15,3.48.15,5.17s-.02,3.46-.05,5.12c-.03,1.65-.09,3.33-.15,5.01-.07,1.65-.13,3.3-.18,4.94-.05,1.64-.11,3.27-.18,4.89l-11.32-.78.83-9.77c.17-1.65.32-3.28.44-4.89.12-1.6.21-3.18.28-4.73.03-.79.06-1.57.08-2.33.02-.76.03-1.53.03-2.33s0-1.51-.03-2.25c-.02-.74-.06-1.46-.13-2.15-.03-.38-.07-.73-.1-1.06-.03-.33-.09-.65-.16-.96-.07-.28-.13-.57-.18-.88-.05-.31-.11-.59-.18-.83l-.41-1.03c-.1-.14-.16-.22-.16-.26l-.1-.1-.05-.05-.05-.1h-.05v-.05c-.07,0-.16.05-.26.15l-.41.31c-.28.24-.62.62-1.03,1.14-.17.21-.34.46-.52.75-.17.29-.34.58-.52.85-.35.55-.67,1.16-.98,1.81-.31.66-.61,1.33-.9,2.02-.29.69-.58,1.38-.85,2.07-.28.69-.54,1.4-.78,2.15-.24.74-.48,1.49-.72,2.25-.24.72-.47,1.47-.7,2.25-.22.78-.44,1.56-.65,2.35-.41,1.52-.8,3.04-1.16,4.58-.36,1.53-.72,3.09-1.06,4.68l-7.44-1.6ZM215.7,37.3s.06,0,.08-.03c.02-.02.04-.03.08-.03-.03,0-.06,0-.08.03-.02.02-.04.03-.08.03Z"/>
    <path class="st0" d="M271.69,30.01c-.21,1.31-.41,2.59-.62,3.85-.21,1.26-.43,2.51-.67,3.75-.17,1.28-.35,2.54-.52,3.8-.17,1.26-.34,2.51-.52,3.75-.17,1.24-.32,2.47-.44,3.7-.12,1.22-.22,2.44-.28,3.65-.07.59-.1,1.16-.1,1.73v2.56c0,.28.02.55.05.83,0,.55.05,1.03.16,1.45.03.21.06.41.08.59.02.19.06.37.13.54l.1.31s-.02.02-.05-.05v.05l.1.1.52.31.93.31,1.34.21c.48.03.97.06,1.47.08.5.02,1.04,0,1.63-.03.59-.07,1.16-.13,1.73-.18s1.15-.11,1.73-.18c.59-.07,1.19-.15,1.81-.23.62-.09,1.24-.18,1.86-.28,1.21-.21,2.43-.44,3.67-.7,1.24-.26,2.52-.53,3.83-.8l2.12,9.25c-1.24.31-2.5.64-3.77.98-1.28.34-2.57.65-3.88.93-.69.17-1.36.32-2.02.44-.66.12-1.33.25-2.02.39-1.38.28-2.79.48-4.24.62-1.45.17-2.98.22-4.6.15-.45-.03-.88-.07-1.29-.1-.41-.03-.84-.09-1.29-.16-.45-.07-.9-.16-1.37-.28-.47-.12-.96-.28-1.47-.49-.48-.17-.96-.37-1.42-.59-.47-.22-.94-.53-1.42-.9-.45-.28-.93-.64-1.45-1.09l-.67-.67-.26-.36-.1-.05v-.05l-.05-.05-.15-.21c-.21-.31-.4-.6-.57-.88-.17-.28-.33-.55-.47-.83-.14-.28-.26-.53-.36-.78-.1-.24-.19-.48-.26-.72-.17-.48-.31-.94-.41-1.37-.1-.43-.21-.87-.31-1.32-.07-.38-.13-.77-.18-1.16-.05-.4-.11-.78-.18-1.16l-.16-2.28c-.07-.76-.1-1.49-.1-2.2v-2.15c.03-2.72.19-5.43.47-8.12.1-1.31.22-2.64.36-3.98.14-1.34.29-2.67.47-3.98l.93-7.75,12.2,1.81Z"/>
    <path class="st0" d="M325.77,52.71c-2.34.24-4.67.45-6.98.62-2.31.17-4.65.34-7.03.52-2.34.14-4.68.25-7.01.34-2.33.09-4.68.15-7.06.18l.36-9.1c2.27.28,4.55.49,6.82.65,2.27.15,4.57.32,6.88.49,2.31.14,4.61.25,6.9.34,2.29.09,4.59.15,6.9.18l.21,5.79Z"/>
    <path class="st0" d="M333.57,28.35c2.93.21,5.82.41,8.66.62,2.84.21,5.7.35,8.56.41,2.83.1,5.69.16,8.58.16,1.45,0,2.87-.03,4.27-.08s2.82-.11,4.27-.18l.88,8.32c-1.48.24-2.96.45-4.42.62-1.47.17-2.96.34-4.47.52-1.48.14-2.96.28-4.42.41-1.47.14-2.97.24-4.52.31-1.1.1-2.18.18-3.23.23-1.05.05-2.13.11-3.23.18-.1.62-.2,1.24-.28,1.86-.09.62-.16,1.22-.23,1.81l-.26,1.86c1.55-.07,3.07-.15,4.55-.23,1.48-.09,2.96-.18,4.45-.28,2.14-.21,4.25-.42,6.33-.65,2.08-.22,4.16-.51,6.23-.85l1.09,11.27c-2.27.07-4.53.09-6.77.08-2.24-.02-4.46-.08-6.67-.18-1.69-.07-3.34-.15-4.96-.26-1.62-.1-3.26-.24-4.91-.41v.05c-.03.52-.05,1.05-.05,1.6s.03,1.07.1,1.55c0,.28,0,.53.03.78.02.24.04.48.08.72.03.28.07.52.1.72.03.21.07.41.1.62.07.17.13.35.18.52.05.17.11.34.18.52l.16.31s.05.03.05,0v-.05l-.05-.1h.05s.03.09.1.15c.07.03.16.07.28.1.12.03.25.07.39.1.17.07.34.11.52.13.17.02.34.04.52.08.21.03.42.06.65.08.22.02.44.03.65.03.93.07,1.95.07,3.05,0,.52-.07,1.04-.13,1.58-.18.53-.05,1.09-.11,1.68-.18,1.1-.17,2.22-.36,3.36-.57,1.14-.21,2.29-.43,3.46-.67,1.17-.24,2.34-.48,3.52-.72,1.17-.24,2.36-.5,3.57-.78l2.12,11.63c-1.21.17-2.41.34-3.62.52-1.21.17-2.45.34-3.72.52-1.24.17-2.5.32-3.77.44-1.28.12-2.57.21-3.88.28-.66.03-1.32.06-1.99.08-.67.02-1.35.03-2.04.03-.72,0-1.44-.03-2.15-.08-.71-.05-1.44-.11-2.2-.18-.38-.07-.76-.14-1.14-.21-.38-.07-.78-.14-1.19-.21-.38-.07-.78-.17-1.19-.31-.41-.14-.84-.29-1.29-.47-.45-.17-.89-.37-1.32-.59-.43-.22-.87-.49-1.32-.8-.45-.28-.88-.62-1.29-1.03-.03-.07-.07-.11-.1-.13-.03-.02-.09-.06-.16-.13l-.05-.1-.1-.1c-.07-.03-.11-.07-.13-.1-.02-.03-.04-.07-.08-.1-.14-.14-.25-.27-.34-.39-.09-.12-.18-.23-.28-.34-.17-.28-.33-.53-.47-.78-.14-.24-.28-.5-.41-.78-.1-.24-.2-.47-.28-.67-.09-.21-.16-.43-.23-.67-.17-.45-.29-.88-.36-1.29-.07-.41-.14-.81-.21-1.19-.07-.38-.12-.76-.15-1.14-.03-.38-.05-.74-.05-1.09-.03-.76-.03-1.45,0-2.07,0-.69.03-1.36.1-2.02.07-.65.14-1.33.21-2.02.07-.62.15-1.24.23-1.86.09-.62.18-1.24.28-1.86.21-1.21.42-2.42.65-3.64.22-1.22.47-2.44.75-3.65l.47-2.07c-.59,0-1.15,0-1.68.03-.53.02-1.08.03-1.63.03l.31-11.84Z"/>
    <path class="st0" d="M396.8,72.66l-.21-2.59c-1.14.62-2.26,1.12-3.36,1.5-1.34.41-2.74.67-4.19.78-1.62.17-3.19.1-4.7-.21-.9-.1-1.69-.35-2.38-.72-.38-.17-.76-.34-1.14-.49-.38-.15-.76-.37-1.14-.65-.69-.41-1.34-.91-1.94-1.5-.6-.59-1.15-1.21-1.63-1.86-.52-.69-.95-1.38-1.29-2.07-.17-.34-.33-.69-.47-1.03-.14-.34-.28-.71-.41-1.09-.41-1.38-.67-2.76-.78-4.14,0-.34,0-.69-.03-1.03-.02-.34,0-.71.03-1.09v-1.03c.03-.07.05-.22.05-.47l.1-.57c.07-.69.2-1.4.39-2.12.19-.72.46-1.43.8-2.12.65-1.48,1.53-2.77,2.64-3.88.52-.59,1.09-1.09,1.71-1.53.62-.43,1.27-.82,1.96-1.16.69-.34,1.38-.63,2.07-.85.69-.22,1.4-.39,2.12-.49.69-.14,1.37-.22,2.04-.26.67-.03,1.35-.03,2.04,0,.62.03,1.24.1,1.86.18.62.09,1.24.2,1.86.34.38.1.74.2,1.09.28.34.09.71.2,1.09.34-.03-.59-.06-1.15-.08-1.68-.02-.53-.03-1.09-.03-1.68-.07-1.86-.12-3.7-.15-5.53-.03-1.83-.07-3.67-.1-5.53l11.22.47c-.17,1.76-.34,3.53-.49,5.33-.15,1.79-.28,3.59-.39,5.38l-.47,10.81c-.17,3.65-.29,7.26-.36,10.83-.07,3.57-.14,7.18-.21,10.83l-7.13.31ZM395.35,51.1c-.69-.24-1.36-.46-2.02-.65-.66-.19-1.31-.32-1.96-.39-.48-.07-.92-.13-1.32-.18-.4-.05-.78-.06-1.16-.03-.9,0-1.67.1-2.33.31-.38.07-.72.16-1.03.28-.31.12-.59.27-.83.44-.55.28-1.02.66-1.4,1.14-.34.41-.62.93-.83,1.55-.1.28-.18.56-.23.85-.05.29-.11.63-.18,1.01v1.03c0,.17.02.37.05.59.03.22.07.42.1.59.07.38.15.74.23,1.09.09.34.18.66.28.93.14.31.28.58.41.8.14.22.29.44.47.65.17.17.36.33.57.47.21.14.4.29.57.47l.62.26c.28.07.52.1.72.1.59.07,1.15.05,1.71-.05.28-.07.59-.16.96-.26s.7-.24,1.01-.41c.69-.28,1.36-.62,2.02-1.03l4.76,8.38c-.24-3-.47-5.98-.67-8.94-.21-2.96-.38-5.96-.52-9Z"/>
    <path class="st0" d="M410.86,71.89c.28-2.31.52-4.61.72-6.9.21-2.29.4-4.59.57-6.9.17-2.34.32-4.66.44-6.95.12-2.29.21-4.61.28-6.95l6.88-.31c.28,2.38.51,4.75.7,7.11.19,2.36.37,4.73.54,7.11.17,2.38.31,4.76.41,7.13.1,2.38.19,4.76.26,7.13l-10.81-.47ZM411.17,35.28c0-.72.13-1.4.39-2.02.26-.62.62-1.16,1.09-1.63s1.01-.83,1.63-1.09c.62-.26,1.29-.39,2.02-.39,1.45,0,2.66.49,3.65,1.47s1.47,2.2,1.47,3.64c0,.72-.13,1.4-.39,2.02-.26.62-.62,1.16-1.09,1.63s-1.01.83-1.63,1.09c-.62.26-1.29.39-2.02.39-1.45,0-2.66-.49-3.64-1.47-.98-.98-1.47-2.2-1.47-3.65Z"/>
    <path class="st0" d="M453.93,70.54c-1,.34-2.07.65-3.21.93-.59.17-1.16.33-1.73.47-.57.14-1.16.24-1.78.31-.66.1-1.31.18-1.96.23-.66.05-1.36.06-2.12.03-.38,0-.76-.03-1.14-.1-.38-.07-.78-.14-1.19-.21-.38-.1-.78-.22-1.21-.36-.43-.14-.84-.29-1.21-.47-.45-.21-.87-.45-1.27-.72-.4-.28-.78-.59-1.16-.93-.38-.31-.72-.65-1.01-1.01-.29-.36-.58-.73-.85-1.11-.28-.41-.51-.81-.7-1.19-.19-.38-.37-.78-.54-1.19-.14-.38-.26-.76-.36-1.14-.1-.38-.19-.78-.26-1.19-.17-.69-.29-1.4-.36-2.12-.07-.72-.12-1.41-.15-2.07l-.1-1.65v-.83c0-.28-.02-.55-.05-.83,0-.72,0-1.45-.03-2.17-.02-.72-.03-1.45-.03-2.17l-6.31.15.36-11.89c1,.14,2,.25,3,.34,1,.09,2,.18,3,.28,0-1.45.05-2.88.15-4.29l.15-6.46,11.53.62-.47,6.51-.36,4.29c.65,0,1.31,0,1.96.03.65.02,1.33.03,2.02.03,1.14,0,2.28,0,3.44-.03,1.15-.02,2.32-.04,3.49-.08l.78,8.38c-1.21.17-2.41.34-3.62.52-1.21.17-2.41.33-3.62.47-.9.1-1.76.2-2.59.28-.83.09-1.67.16-2.53.23-.07.83-.11,1.65-.13,2.48-.02.83-.04,1.67-.08,2.53,0,.28,0,.55-.03.83-.02.28-.03.55-.03.83l-.1,1.55c0,.45,0,.85.03,1.21.02.36.06.7.13,1.01l.16.83c.03.14.08.25.13.34s.09.15.13.18l.15.31s.07.07.1.1c.03.03.09.09.15.16.07.03.14.07.21.1.07.03.16.09.26.15.28.07.53.1.78.1.65.1,1.43.1,2.33,0,.41-.03.84-.09,1.29-.16.45-.07.91-.14,1.4-.21.45-.14.92-.26,1.42-.36.5-.1.99-.21,1.47-.31l2.27,8.43Z"/>
    <path class="st0" d="M473.11,39.52c2.1-.03,4.17.4,6.2,1.29,1,.45,1.92.97,2.77,1.58.84.6,1.63,1.3,2.35,2.09.69.76,1.31,1.58,1.86,2.46.55.88,1,1.8,1.34,2.77.79,1.96,1.19,3.98,1.19,6.05.03,1.03-.03,2.06-.21,3.08-.17,1.02-.43,2.03-.78,3.02-.38,1-.83,1.96-1.34,2.87-.52.91-1.12,1.78-1.81,2.61-.69.79-1.47,1.53-2.33,2.2-.86.67-1.79,1.25-2.79,1.73-.48.21-.99.4-1.53.59-.53.19-1.08.35-1.63.49-.55.1-1.1.19-1.65.26-.55.07-1.1.1-1.65.1-.59,0-1.15-.03-1.71-.08-.55-.05-1.1-.15-1.65-.28-.55-.1-1.09-.25-1.6-.44-.52-.19-1.03-.39-1.55-.59-.52-.28-1.01-.54-1.47-.8-.47-.26-.92-.56-1.37-.9-.45-.34-.85-.71-1.22-1.09-.36-.38-.73-.76-1.11-1.14-.72-.72-1.36-1.58-1.91-2.59-.28-.48-.53-.96-.75-1.42-.22-.47-.44-.94-.65-1.42-.72-2-1.09-4.07-1.09-6.2,0-.52.03-1.03.08-1.55.05-.52.11-1.05.18-1.6.14-.48.28-.98.41-1.5.14-.52.29-1.02.47-1.5.21-.48.42-.96.65-1.42.22-.47.47-.94.75-1.42l.21-.31.21-.36c.07-.07.14-.17.21-.31.07-.07.12-.12.15-.16.03-.03.09-.09.15-.15l.21-.36.26-.26.16-.16.15-.15.26-.31c1.45-1.62,3.19-2.84,5.22-3.67,1-.45,2.03-.75,3.1-.9,1.07-.16,2.15-.2,3.26-.13ZM471.71,47.9l-1.19.62c-.38.28-.74.56-1.09.85-.34.29-.66.63-.93,1.01l-.15.15-.1.1-.1.21-.05.15-.1.1-.21.31-.05.16c-.14.21-.25.41-.34.62-.09.21-.16.45-.23.72-.07.21-.13.43-.18.67-.05.24-.11.48-.18.72-.03.24-.06.47-.08.7-.02.22-.03.47-.03.75,0,1.03.16,1.98.47,2.84.28.86.76,1.69,1.45,2.48l.98.93c.17.1.34.22.52.34.17.12.36.22.57.28.38.21.78.35,1.19.44.41.09.83.15,1.24.18.9,0,1.71-.19,2.43-.57.86-.34,1.58-.86,2.17-1.55l.88-1.09c.28-.52.48-.96.62-1.34.21-.48.35-.96.44-1.45.09-.48.15-.98.18-1.5,0-.48-.03-.97-.1-1.47-.07-.5-.19-.99-.36-1.47-.31-.96-.78-1.84-1.4-2.64l-.1-.16-.1-.15-.16-.15-.15-.1-.1-.1-.36-.36c-.41-.38-.83-.65-1.24-.83-.03,0-.06,0-.08-.03-.02-.02-.04-.03-.08-.03l-.15-.05c-.14-.07-.24-.14-.31-.21l-.31-.1-.36-.1c-.21-.07-.42-.12-.65-.15-.22-.03-.46-.05-.7-.05-.45.03-.91.14-1.4.31Z"/>
    <path class="st0" d="M503.51,39.57l.26,6.15c.72-.38,1.45-.77,2.17-1.16.72-.4,1.45-.78,2.17-1.16.76-.38,1.51-.73,2.25-1.06.74-.33,1.51-.66,2.3-1.01.76-.34,1.53-.67,2.33-.98.79-.31,1.59-.6,2.38-.88l2.64,10.81c-.76.14-1.5.26-2.22.36-.72.1-1.45.24-2.17.41-.76.14-1.5.29-2.22.47-.72.17-1.45.34-2.17.52-.76.17-1.5.35-2.22.54-.72.19-1.47.41-2.22.65l-2.53.78.16,2.9c.17,2.72.34,5.31.49,7.75.15,2.45.34,5.03.54,7.75l-11.37.05c.1-2.79.23-5.56.39-8.3.15-2.74.32-5.51.49-8.3.17-2.76.37-5.51.59-8.25.22-2.74.44-5.51.65-8.3l7.34.26Z"/>
  </g>
  <path class="st0" d="M34.56,0H6.44C2.15,0,0,2.15,0,6.44v28.13c0,4.29,2.15,6.44,6.44,6.44h28.13c4.29,0,6.44-2.15,6.44-6.44V6.44c0-4.29-2.15-6.44-6.44-6.44ZM27.68,14.42h-5.13v14.36c-.06,1.1-.98,1.97-2.08,1.97s-2.02-.86-2.08-1.97v-14.36h-5.07c-1.12-.05-2-.97-2-2.08s.88-2.04,2-2.08h14.36c1.12.05,2,.97,2,2.08s-.88,2.04-2,2.08ZM90.19,100h-21.37c-5.42,0-9.81-4.43-9.81-9.89v-21.22c0-5.46,4.39-9.89,9.81-9.89h21.37c5.41.04,9.78,4.44,9.81,9.89v21.48c-.17,5.35-4.51,9.6-9.81,9.63h0ZM68.81,65.31c-.87,0-1.7.35-2.31.98-.61.62-.94,1.47-.92,2.34v21.48c-.02.87.31,1.72.92,2.34.61.62,1.44.98,2.31.98h21.37c.87,0,1.7-.35,2.31-.98.61-.62.94-1.47.92-2.34v-21.22c.02-.87-.32-1.72-.92-2.34-.61-.62-1.44-.98-2.31-.98l-21.37-.26ZM86.28,80.65c-.5-.64-1.11-1.18-1.82-1.61-.69-.42-1.45-.76-2.26-1-.78-.23-1.53-.41-2.25-.53h-.06s-.13,0-.13,0c-.04,0-.09-.01-.17-.03l-.38-.05c-.31-.04-.66-.12-1.04-.24-.37-.12-.72-.28-1.05-.47-.31-.18-.57-.4-.8-.65-.18-.2-.28-.42-.32-.67-.03-.22-.02-.42.04-.59.09-.28.23-.51.45-.69.26-.22.57-.4.9-.54.36-.14.74-.25,1.13-.31.41-.07.77-.1,1.09-.1.47,0,.95.05,1.43.15.46.09.88.25,1.27.46.37.21.69.47.95.79.25.3.43.69.53,1.16.1.41.31.75.63,1.01.37.3.86.47,1.34.37h.07c.49-.08.9-.33,1.19-.73.29-.4.4-.86.33-1.34-.15-.98-.48-1.84-.99-2.58-.5-.72-1.12-1.32-1.83-1.8-.71-.47-1.5-.82-2.35-1.05-.84-.23-1.71-.34-2.57-.34h-.61c-.13,0-.27.02-.41.05-.61.05-1.22.17-1.84.35-.65.19-1.27.46-1.84.8-.59.35-1.11.79-1.55,1.3-.45.53-.8,1.15-1.03,1.85-.23.74-.3,1.5-.2,2.27.1.77.34,1.46.72,2.05.36.56.8,1.06,1.32,1.48.5.41,1.07.75,1.69,1.03.6.27,1.23.49,1.82.64.2.07.43.13.67.18.23.05.44.08.64.11h.11s.04.01.05.01c.04,0,.09.02.18.03.35.05.78.14,1.27.25.45.1.9.25,1.31.45.4.18.74.41,1.03.67.22.2.33.42.37.75.01.06.01.12,0,.17-.02.1-.05.2-.1.31-.12.31-.29.56-.52.77-.26.23-.57.43-.91.58-.35.16-.73.27-1.12.34-.89.16-1.66.14-2.52-.04-.45-.09-.87-.25-1.26-.46-.37-.2-.69-.47-.94-.78-.23-.28-.37-.63-.43-1.1-.09-.47-.33-.88-.7-1.18-.37-.3-.79-.45-1.25-.45h-.28c-.51.1-.94.35-1.26.75-.34.42-.46.93-.37,1.48.06.34.13.67.22.98.09.35.24.7.43,1.06.37.64.82,1.21,1.34,1.69.52.48,1.1.88,1.73,1.19.62.31,1.29.54,1.98.69.68.15,1.39.22,2.08.22s1.47-.08,2.21-.23c.75-.16,1.47-.41,2.14-.75.67-.35,1.29-.8,1.83-1.34.55-.56.99-1.24,1.28-2.01.29-.74.39-1.52.31-2.31-.09-.95-.4-1.78-.94-2.46ZM46.84,100c-.86.01-1.69-.33-2.28-.95L.91,55.35c-1.21-1.23-1.21-3.19,0-4.41,1.26-1.25,3.3-1.25,4.56,0l43.59,43.7c1.26,1.26,1.26,3.29,0,4.54-.61.54-1.4.83-2.22.82h0ZM96.84,49.96c-.88.13-1.77-.09-2.47-.63L50.92,5.44c-1.22-1.26-1.22-3.25,0-4.51C51.51.33,52.32,0,53.17,0s1.65.33,2.25.93l43.64,43.45c.92.91,1.2,2.29.7,3.48-.5,1.19-1.67,1.97-2.98,1.98l.06.13Z"/>
</svg>